<svg width="129" height="23" viewBox="0 0 129 23" fill="none" xmlns="http://www.w3.org/2000/svg">
<path d="M12.3438 13.8984L14.2578 3.78125H17.1777L14.0234 18H11.0742L8.75977 8.48828L6.44531 18H3.49609L0.341797 3.78125H3.26172L5.18555 13.8789L7.5293 3.78125H10.0098L12.3438 13.8984ZM23.7348 18.1953C22.1853 18.1953 20.9223 17.7201 19.9457 16.7695C18.9757 15.819 18.4906 14.5527 18.4906 12.9707V12.6973C18.4906 11.6361 18.6957 10.6888 19.1059 9.85547C19.516 9.01562 20.0954 8.37109 20.8441 7.92188C21.5993 7.46615 22.4587 7.23828 23.4223 7.23828C24.8676 7.23828 26.0036 7.69401 26.8305 8.60547C27.6638 9.51693 28.0805 10.8092 28.0805 12.4824V13.6348H21.352C21.4431 14.3249 21.7165 14.8783 22.1723 15.2949C22.6345 15.7116 23.2172 15.9199 23.9203 15.9199C25.0076 15.9199 25.8572 15.526 26.4691 14.7383L27.8559 16.291C27.4327 16.89 26.8598 17.3587 26.1371 17.6973C25.4145 18.0293 24.6137 18.1953 23.7348 18.1953ZM23.4125 9.52344C22.8526 9.52344 22.3969 9.71224 22.0453 10.0898C21.7003 10.4674 21.4789 11.0078 21.3813 11.7109H25.307V11.4863C25.294 10.8613 25.1247 10.3796 24.7992 10.041C24.4737 9.69596 24.0115 9.52344 23.4125 9.52344ZM39.8133 12.8145C39.8133 14.5072 39.452 15.8288 38.7293 16.7793C38.0066 17.7233 36.9975 18.1953 35.702 18.1953C34.5561 18.1953 33.6414 17.7559 32.9578 16.877L32.8309 18H30.2918V3H33.1141V8.38086C33.7651 7.61914 34.6212 7.23828 35.6824 7.23828C36.9715 7.23828 37.9806 7.71354 38.7098 8.66406C39.4454 9.60807 39.8133 10.9395 39.8133 12.6582V12.8145ZM36.991 12.6094C36.991 11.5417 36.8217 10.7637 36.4832 10.2754C36.1447 9.7806 35.6401 9.5332 34.9695 9.5332C34.0711 9.5332 33.4526 9.90104 33.1141 10.6367V14.8066C33.4591 15.5488 34.0841 15.9199 34.9891 15.9199C35.9005 15.9199 36.4995 15.4707 36.7859 14.5723C36.9227 14.1426 36.991 13.4883 36.991 12.6094Z" fill="#333333"/>
<path d="M49.6426 14.2695C49.6426 13.7161 49.4473 13.293 49.0566 13C48.666 12.7005 47.9629 12.388 46.9473 12.0625C45.9316 11.7305 45.1276 11.4049 44.5352 11.0859C42.9206 10.2135 42.1133 9.03841 42.1133 7.56055C42.1133 6.79232 42.3281 6.10872 42.7578 5.50977C43.194 4.9043 43.8158 4.43229 44.623 4.09375C45.4368 3.75521 46.3483 3.58594 47.3574 3.58594C48.373 3.58594 49.278 3.77148 50.0723 4.14258C50.8665 4.50716 51.4818 5.02474 51.918 5.69531C52.3607 6.36589 52.582 7.1276 52.582 7.98047H49.6523C49.6523 7.32943 49.4473 6.82487 49.0371 6.4668C48.627 6.10221 48.0508 5.91992 47.3086 5.91992C46.5924 5.91992 46.0358 6.07292 45.6387 6.37891C45.2415 6.67839 45.043 7.07552 45.043 7.57031C45.043 8.03255 45.2741 8.41992 45.7363 8.73242C46.2051 9.04492 46.8919 9.33789 47.7969 9.61133C49.4635 10.1126 50.6777 10.7344 51.4395 11.4766C52.2012 12.2188 52.582 13.1432 52.582 14.25C52.582 15.4805 52.1165 16.4473 51.1855 17.1504C50.2546 17.847 49.0013 18.1953 47.4258 18.1953C46.332 18.1953 45.3359 17.9967 44.4375 17.5996C43.5391 17.196 42.8522 16.6458 42.377 15.9492C41.9082 15.2526 41.6738 14.4453 41.6738 13.5273H44.6133C44.6133 15.0964 45.5508 15.8809 47.4258 15.8809C48.1224 15.8809 48.666 15.7409 49.0566 15.4609C49.4473 15.1745 49.6426 14.7773 49.6426 14.2695ZM59.852 18.1953C58.3025 18.1953 57.0395 17.7201 56.0629 16.7695C55.0928 15.819 54.6078 14.5527 54.6078 12.9707V12.6973C54.6078 11.6361 54.8129 10.6888 55.223 9.85547C55.6332 9.01562 56.2126 8.37109 56.9613 7.92188C57.7165 7.46615 58.5759 7.23828 59.5395 7.23828C60.9848 7.23828 62.1208 7.69401 62.9477 8.60547C63.781 9.51693 64.1977 10.8092 64.1977 12.4824V13.6348H57.4691C57.5603 14.3249 57.8337 14.8783 58.2895 15.2949C58.7517 15.7116 59.3344 15.9199 60.0375 15.9199C61.1247 15.9199 61.9743 15.526 62.5863 14.7383L63.973 16.291C63.5499 16.89 62.977 17.3587 62.2543 17.6973C61.5316 18.0293 60.7309 18.1953 59.852 18.1953ZM59.5297 9.52344C58.9698 9.52344 58.5141 9.71224 58.1625 10.0898C57.8174 10.4674 57.5961 11.0078 57.4984 11.7109H61.4242V11.4863C61.4112 10.8613 61.2419 10.3796 60.9164 10.041C60.5909 9.69596 60.1286 9.52344 59.5297 9.52344ZM69.0555 7.43359L69.1434 8.61523C69.8921 7.69727 70.9044 7.23828 72.1805 7.23828C73.5411 7.23828 74.4754 7.77539 74.9832 8.84961C75.7254 7.77539 76.7833 7.23828 78.157 7.23828C79.3029 7.23828 80.1557 7.57357 80.7156 8.24414C81.2755 8.9082 81.5555 9.91081 81.5555 11.252V18H78.7234V11.2617C78.7234 10.6628 78.6063 10.2266 78.3719 9.95312C78.1375 9.67318 77.7241 9.5332 77.1316 9.5332C76.2853 9.5332 75.6993 9.93685 75.3738 10.7441L75.3836 18H72.5613V11.2715C72.5613 10.6595 72.4409 10.2168 72.2 9.94336C71.9591 9.66992 71.549 9.5332 70.9695 9.5332C70.1688 9.5332 69.5893 9.86523 69.2313 10.5293V18H66.409V7.43359H69.0555ZM89.1965 18.1953C87.647 18.1953 86.384 17.7201 85.4074 16.7695C84.4374 15.819 83.9523 14.5527 83.9523 12.9707V12.6973C83.9523 11.6361 84.1574 10.6888 84.5676 9.85547C84.9777 9.01562 85.5572 8.37109 86.3059 7.92188C87.0611 7.46615 87.9204 7.23828 88.884 7.23828C90.3293 7.23828 91.4654 7.69401 92.2922 8.60547C93.1255 9.51693 93.5422 10.8092 93.5422 12.4824V13.6348H86.8137C86.9048 14.3249 87.1783 14.8783 87.634 15.2949C88.0962 15.7116 88.6789 15.9199 89.382 15.9199C90.4693 15.9199 91.3189 15.526 91.9309 14.7383L93.3176 16.291C92.8944 16.89 92.3215 17.3587 91.5988 17.6973C90.8762 18.0293 90.0754 18.1953 89.1965 18.1953ZM88.8742 9.52344C88.3143 9.52344 87.8586 9.71224 87.507 10.0898C87.162 10.4674 86.9406 11.0078 86.843 11.7109H90.7687V11.4863C90.7557 10.8613 90.5865 10.3796 90.2609 10.041C89.9354 9.69596 89.4732 9.52344 88.8742 9.52344ZM98.3512 7.43359L98.4391 8.6543C99.1943 7.71029 100.207 7.23828 101.476 7.23828C102.596 7.23828 103.429 7.56706 103.976 8.22461C104.523 8.88216 104.803 9.86523 104.816 11.1738V18H101.994V11.2422C101.994 10.6432 101.864 10.2103 101.603 9.94336C101.343 9.66992 100.91 9.5332 100.304 9.5332C99.51 9.5332 98.9143 9.87174 98.5172 10.5488V18H95.6949V7.43359H98.3512ZM107.125 12.6191C107.125 11.571 107.327 10.6367 107.73 9.81641C108.134 8.99609 108.714 8.36133 109.469 7.91211C110.23 7.46289 111.113 7.23828 112.115 7.23828C113.541 7.23828 114.703 7.67448 115.602 8.54688C116.507 9.41927 117.011 10.6042 117.115 12.1016L117.135 12.8242C117.135 14.4453 116.682 15.7474 115.777 16.7305C114.872 17.707 113.658 18.1953 112.135 18.1953C110.611 18.1953 109.394 17.707 108.482 16.7305C107.577 15.7539 107.125 14.4258 107.125 12.7461V12.6191ZM109.947 12.8242C109.947 13.8268 110.136 14.5951 110.514 15.1289C110.891 15.6562 111.432 15.9199 112.135 15.9199C112.818 15.9199 113.352 15.6595 113.736 15.1387C114.12 14.6113 114.312 13.7715 114.312 12.6191C114.312 11.6361 114.12 10.8743 113.736 10.334C113.352 9.79362 112.812 9.52344 112.115 9.52344C111.425 9.52344 110.891 9.79362 110.514 10.334C110.136 10.8678 109.947 11.6979 109.947 12.8242ZM123.272 14.5527L125.235 7.43359H128.184L124.62 18H121.924L118.36 7.43359H121.309L123.272 14.5527Z" fill="url(#paint0_radial)"/>
<defs>
<radialGradient id="paint0_radial" cx="0" cy="0" r="1" gradientUnits="userSpaceOnUse" gradientTransform="translate(50.9524 11) rotate(5.04069) scale(136.576 476.578)">
<stop stop-color="#663399"/>
<stop offset="1" stop-color="#663399" stop-opacity="0.52"/>
</radialGradient>
</defs>
</svg>
