<svg width="313" height="312" viewBox="0 0 313 312" fill="none" xmlns="http://www.w3.org/2000/svg">
<path d="M244.4 261.107C221.2 279.507 191.6 290.707 159.2 290.707C121.2 290.707 86.8 275.107 62 250.307C37.2 225.507 21.6 191.107 21.6 153.107C21.6 121.507 32 92.7066 50 69.5066C62.4 53.5066 78 40.3066 96 31.1066C94 35.5066 92 39.9066 90.4 44.7066C85.2 59.1066 82.8 74.3066 82.8 90.3066C82.8 128.307 98.4 163.107 123.2 187.907C148 212.707 182.8 228.307 220.8 228.307C237.6 228.307 253.6 225.507 268.4 219.907C273.6 217.907 278.8 215.907 283.6 213.507C274 231.907 260.8 248.307 244.4 261.107Z" fill="#F4DC49"/>
<path fill-rule="evenodd" clip-rule="evenodd" d="M305.6 177.507C302.4 176.707 299.2 177.507 296.4 179.507C286 188.307 274 195.507 260.8 200.307C248.4 205.107 234.8 207.507 220.4 207.507C188 207.507 158.4 194.307 137.2 173.107C116 151.907 102.8 122.307 102.8 89.9066C102.8 76.3066 105.2 63.1066 109.2 51.1066C113.6 38.3066 120 26.7066 128.4 16.7066C132 12.3066 131.2 5.90656 126.8 2.30656C124 0.306563 120.8 -0.493437 117.6 0.306563C83.6 9.50656 54 29.9066 32.8 57.1066C12.4 83.9066 0 117.107 0 153.507C0 197.107 17.6 236.707 46.4 265.507C75.2 294.307 114.8 311.907 158.4 311.907C195.2 311.907 229.2 299.107 256.4 277.907C284 256.307 304 225.507 312.4 190.307C314.4 184.307 311.2 178.707 305.6 177.507ZM159.2 290.707C191.6 290.707 221.2 279.507 244.4 261.107C260.8 248.307 274 231.907 283.6 213.507C278.8 215.907 273.6 217.907 268.4 219.907C253.6 225.507 237.6 228.307 220.8 228.307C182.8 228.307 148 212.707 123.2 187.907C98.4 163.107 82.8 128.307 82.8 90.3066C82.8 74.3066 85.2 59.1066 90.4 44.7066C92 39.9066 94 35.5066 96 31.1066C78 40.3066 62.4 53.5066 50 69.5066C32 92.7066 21.6 121.507 21.6 153.107C21.6 191.107 37.2 225.507 62 250.307C86.8 275.107 121.2 290.707 159.2 290.707Z" fill="#F4DC49"/>
</svg>
